<svg width="60" height="60" viewBox="0 0 60 60" fill="none" xmlns="http://www.w3.org/2000/svg">
<path fill-rule="evenodd" clip-rule="evenodd" d="M27.8973 0.00341797C27.7361 0.00341797 27.6055 0.134078 27.6055 0.295257V4.81006C27.6006 4.81006 27.5957 4.81006 27.5908 4.81006C12.3528 4.81006 0 17.1639 0 32.4032C0 47.6425 12.3528 59.9963 27.5908 59.9963C42.8284 59.9963 55.1809 47.6431 55.1816 32.4045H59.708C59.8692 32.4045 59.9999 32.2737 59.9999 32.1125C59.9999 14.3827 45.6271 0.00341797 27.8973 0.00341797ZM41.3862 32.4045H55.1816C55.1816 32.404 55.1816 32.4036 55.1816 32.4032C55.1816 17.1688 42.8367 4.81799 27.6055 4.81006V18.6066C27.6006 18.6066 27.5957 18.6066 27.5908 18.6066C19.9718 18.6066 13.7954 24.7836 13.7954 32.4032C13.7954 40.0228 19.9718 46.1998 27.5908 46.1998C35.2094 46.1998 41.3855 40.0235 41.3862 32.4045ZM41.3862 32.4045H28.3554C27.9412 32.4045 27.6055 32.0687 27.6055 31.6546V18.6066C35.2177 18.6146 41.3862 24.7885 41.3862 32.4032C41.3862 32.4036 41.3862 32.404 41.3862 32.4045Z" fill="#A59DFF"/>
</svg>
