<svg width="60" height="60" viewBox="0 0 60 60" fill="none" xmlns="http://www.w3.org/2000/svg">
<path fill-rule="evenodd" clip-rule="evenodd" d="M0.00014899 13.8887C0.00014901 13.6569 0.188362 13.4691 0.420082 13.4691C4.93664 13.4691 9.3028 14.1184 13.4298 15.3289L13.4298 46.5306L44.696 46.5306C45.9168 50.6685 46.5721 55.0483 46.5721 59.5808C46.5721 59.8123 46.3844 60 46.1529 60L1.00014 60C0.447861 60 0.000144998 59.5523 0.000145046 59L0.00014899 13.8887ZM44.696 46.5306L60.002 46.5306L60.002 -7.62939e-05L13.4298 -8.03654e-05L13.4298 15.3289C28.4317 19.7288 40.2741 31.5425 44.696 46.5306Z" fill="#A59DFF"/>
</svg>
