<svg width="60" height="60" viewBox="0 0 60 60" fill="none" xmlns="http://www.w3.org/2000/svg">
<path fill-rule="evenodd" clip-rule="evenodd" d="M35.4945 29.9699C35.4945 39.7715 27.5488 47.7172 17.7473 47.7172C17.6743 47.7172 17.6014 47.7167 17.5287 47.7159L17.5287 12.224C17.6014 12.2231 17.6743 12.2227 17.7473 12.2227C27.5488 12.2227 35.4945 20.1684 35.4945 29.9699ZM17.5287 12.224C7.82785 12.3411 -1.73791e-06 20.2414 -1.31266e-06 29.9699C-8.87407e-07 39.6985 7.82785 47.5988 17.5287 47.7159L17.5287 60L29.9999 60C46.5685 60 60 46.5685 60 29.9999C60 13.4313 46.5685 -0.000230917 29.9999 -0.000230193L17.5287 -0.000229648L17.5287 12.224Z" fill="#A59DFF"/>
</svg>
